# This file uses centimeters as units for non-parametric coordinates.

mtllib box.mtl
g default
v -0.500000 0.000000 0.500000
v 0.500000 0.000000 0.500000
v -0.500000 1.000000 0.500000
v 0.500000 1.000000 0.500000
v -0.500000 1.000000 -0.500000
v 0.500000 1.000000 -0.500000
v -0.500000 0.000000 -0.500000
v 0.500000 0.000000 -0.500000
vt 0.992266 0.000456
vt 0.992498 0.007095
vt 0.007502 0.003611
vt 1.984908 0.993097
vt 0.008426 0.009500
vt 0.992498 0.988607
vt 0.005656 0.006063
vt 0.991574 0.992649
vt 0.005656 0.994751
vt 0.994344 0.994751
vt 2.977548 0.000456
vt 2.977548 0.993097
vt -0.000374 0.000456
vt -0.000374 0.993097
vt 0.994344 0.006063
vt 0.008426 0.992649
vt 0.991574 0.009500
vt 0.007502 0.988607
vt 0.992498 0.003611
vt 0.007502 0.992091
vt 1.984908 0.000456
vt 0.992498 0.992091
vt 0.007502 0.007095
vt 0.992266 0.993097
vn 0.000000 0.000000 1.000000
vn 0.000000 0.000000 1.000000
vn 0.000000 0.000000 1.000000
vn 0.000000 0.000000 1.000000
vn 0.000000 1.000000 0.000000
vn 0.000000 1.000000 0.000000
vn 0.000000 1.000000 0.000000
vn 0.000000 1.000000 0.000000
vn 0.000000 0.000000 -1.000000
vn 0.000000 0.000000 -1.000000
vn 0.000000 0.000000 -1.000000
vn 0.000000 0.000000 -1.000000
vn 0.000000 -1.000000 0.000000
vn 0.000000 -1.000000 0.000000
vn 0.000000 -1.000000 0.000000
vn 0.000000 -1.000000 0.000000
vn 1.000000 0.000000 0.000000
vn 1.000000 0.000000 0.000000
vn 1.000000 0.000000 0.000000
vn 1.000000 0.000000 0.000000
vn -1.000000 0.000000 0.000000
vn -1.000000 0.000000 0.000000
vn -1.000000 0.000000 0.000000
vn -1.000000 0.000000 0.000000
s off
g pCube1
usemtl lambert2SG
f 1/23/1 2/2/2 4/22/3 3/20/4
f 3/3/5 4/19/6 6/6/7 5/18/8
f 5/5/9 6/17/10 8/8/11 7/16/12
f 7/7/13 8/15/14 2/10/15 1/9/16
f 2/21/17 8/11/18 6/12/19 4/4/20
f 7/13/21 1/1/22 3/24/23 5/14/24
