# This file uses centimeters as units for non-parametric coordinates.

mtllib matoon.mtl
g default
v -1.527778 0.852986 0.298958
v 1.527778 0.852986 0.298958
v -1.527778 5.261875 0.298958
v 1.527778 5.261875 0.298958
v -1.527778 5.261875 -0.298958
v 1.527778 5.261875 -0.298958
v -1.527778 0.852986 -0.298958
v 1.527778 0.852986 -0.298958
vt 0.375000 0.000000
vt 0.676446 0.261716
vt 0.748884 0.476011
vt 0.625000 0.250000
vt 0.474708 0.889890
vt 0.682234 0.889890
vt 0.044708 0.627674
vt 0.294708 0.627674
vt 0.375000 0.629086
vt 0.625000 0.629086
vt 0.875000 0.000000
vt 0.875000 0.250000
vt 0.125000 0.000000
vt 0.125000 0.250000
vt 0.625000 0.000000
vt 0.676446 0.758921
vt 0.956410 0.476011
vt 0.323057 0.261716
vt 0.323057 0.758921
vt 0.375000 0.250000
vn 0.000000 0.000000 1.000000
vn 0.000000 0.000000 1.000000
vn 0.000000 0.000000 1.000000
vn 0.000000 0.000000 1.000000
vn 0.000000 1.000000 0.000000
vn 0.000000 1.000000 0.000000
vn 0.000000 1.000000 0.000000
vn 0.000000 1.000000 0.000000
vn 0.000000 0.000000 -1.000000
vn 0.000000 0.000000 -1.000000
vn 0.000000 0.000000 -1.000000
vn 0.000000 0.000000 -1.000000
vn 0.000000 -1.000000 0.000000
vn 0.000000 -1.000000 0.000000
vn 0.000000 -1.000000 0.000000
vn 0.000000 -1.000000 0.000000
vn 1.000000 0.000000 0.000000
vn 1.000000 0.000000 0.000000
vn 1.000000 0.000000 0.000000
vn 1.000000 0.000000 0.000000
vn -1.000000 0.000000 0.000000
vn -1.000000 0.000000 0.000000
vn -1.000000 0.000000 0.000000
vn -1.000000 0.000000 0.000000
s off
g pCube2
usemtl lambert2SG
f 1/18/1 2/2/2 4/16/3 3/19/4
f 3/3/5 4/17/6 6/6/7 5/5/8
f 5/5/9 6/6/10 8/8/11 7/7/12
f 7/7/13 8/8/14 2/10/15 1/9/16
f 2/15/17 8/11/18 6/12/19 4/4/20
f 7/13/21 1/1/22 3/20/23 5/14/24
g default
v -1.857120 0.000000 0.500000
v 1.857120 0.000000 0.500000
v -1.857120 1.000000 0.500000
v 1.857120 1.000000 0.500000
v -1.857120 1.000000 -0.500000
v 1.857120 1.000000 -0.500000
v -1.857120 0.000000 -0.500000
v 1.857120 0.000000 -0.500000
vt 0.375000 0.000000
vt 0.625000 0.000000
vt 0.375000 0.250000
vt 0.625000 0.250000
vt 0.375000 0.500000
vt 0.625000 0.500000
vt 0.375000 0.750000
vt 0.625000 0.750000
vt 0.375000 1.000000
vt 0.625000 1.000000
vt 0.875000 0.000000
vt 0.875000 0.250000
vt 0.125000 0.000000
vt 0.125000 0.250000
vn 0.000000 0.000000 1.000000
vn 0.000000 0.000000 1.000000
vn 0.000000 0.000000 1.000000
vn 0.000000 0.000000 1.000000
vn 0.000000 1.000000 0.000000
vn 0.000000 1.000000 0.000000
vn 0.000000 1.000000 0.000000
vn 0.000000 1.000000 0.000000
vn 0.000000 0.000000 -1.000000
vn 0.000000 0.000000 -1.000000
vn 0.000000 0.000000 -1.000000
vn 0.000000 0.000000 -1.000000
vn 0.000000 -1.000000 0.000000
vn 0.000000 -1.000000 0.000000
vn 0.000000 -1.000000 0.000000
vn 0.000000 -1.000000 0.000000
vn 1.000000 0.000000 0.000000
vn 1.000000 0.000000 0.000000
vn 1.000000 0.000000 0.000000
vn 1.000000 0.000000 0.000000
vn -1.000000 0.000000 0.000000
vn -1.000000 0.000000 0.000000
vn -1.000000 0.000000 0.000000
vn -1.000000 0.000000 0.000000
s off
g pCube1
usemtl lambert3SG
f 9/21/25 10/22/26 12/24/27 11/23/28
f 11/23/29 12/24/30 14/26/31 13/25/32
f 13/25/33 14/26/34 16/28/35 15/27/36
f 15/27/37 16/28/38 10/30/39 9/29/40
f 10/22/41 16/31/42 14/32/43 12/24/44
f 15/33/45 9/21/46 11/23/47 13/34/48
